<svg width="800px" height="800px" viewBox="0 0 1024 1024" class="icon"  version="1.1" xmlns="http://www.w3.org/2000/svg"><path d="M810.666667 938.666667H256V85.333333h554.666667c46.933333 0 85.333333 38.4 85.333333 85.333334v682.666666c0 46.933333-38.4 85.333333-85.333333 85.333334z" fill="#FF7043" /><path d="M213.333333 85.333333h42.666667v853.333334h-42.666667c-46.933333 0-85.333333-38.4-85.333333-85.333334V170.666667c0-46.933333 38.4-85.333333 85.333333-85.333334z" fill="#BF360C" /><path d="M554.666667 426.666667m-85.333334 0a85.333333 85.333333 0 1 0 170.666667 0 85.333333 85.333333 0 1 0-170.666667 0Z" fill="#AB300B" /><path d="M704 640s-40.533333-85.333333-149.333333-85.333333-149.333333 85.333333-149.333334 85.333333v42.666667h298.666667v-42.666667z" fill="#AB300B" /></svg>
